<?xml version="1.0" encoding="UTF-8" standalone="no"?>
<!-- Created with Inkscape (http://www.inkscape.org/) -->

<svg
   xmlns:dc="http://purl.org/dc/elements/1.1/"
   xmlns:cc="http://creativecommons.org/ns#"
   xmlns:rdf="http://www.w3.org/1999/02/22-rdf-syntax-ns#"
   xmlns:svg="http://www.w3.org/2000/svg"
   xmlns="http://www.w3.org/2000/svg"
   xmlns:sodipodi="http://sodipodi.sourceforge.net/DTD/sodipodi-0.dtd"
   xmlns:inkscape="http://www.inkscape.org/namespaces/inkscape"
   id="svg2"
   version="1.1"
   inkscape:version="0.48.4 r9939"
   width="759.70959"
   height="759.70959"
   xml:space="preserve"
   sodipodi:docname="atomic-sticker.svg"><metadata
     id="metadata8"><rdf:RDF><cc:Work
         rdf:about=""><dc:format>image/svg+xml</dc:format><dc:type
           rdf:resource="http://purl.org/dc/dcmitype/StillImage" /><dc:title /></cc:Work></rdf:RDF></metadata><defs
     id="defs6" /><sodipodi:namedview
     pagecolor="#ffffff"
     bordercolor="#666666"
     borderopacity="1"
     objecttolerance="10"
     gridtolerance="10"
     guidetolerance="10"
     inkscape:pageopacity="0"
     inkscape:pageshadow="2"
     inkscape:window-width="1327"
     inkscape:window-height="917"
     id="namedview4"
     showgrid="false"
     inkscape:zoom="0.66604443"
     inkscape:cx="183.99673"
     inkscape:cy="421.92378"
     inkscape:window-x="270"
     inkscape:window-y="47"
     inkscape:window-maximized="0"
     inkscape:current-layer="g12"
     fit-margin-top="0"
     fit-margin-left="0"
     fit-margin-right="0"
     fit-margin-bottom="0" /><g
     id="g10"
     inkscape:groupmode="layer"
     inkscape:label="atomic-sticker"
     transform="matrix(1.25,0,0,-1.25,-3.0028106,900.84132)"><g
       id="g12"
       transform="matrix(1.4152536,0,0,1.4152536,146.53677,227.01188)"><path
         d="m 327.59723,134.0965 c 0,-118.587267 -96.13542,-214.722685 -214.72421,-214.722685 -118.5812057,0 -214.71662,96.135418 -214.71662,214.722685 0,118.58272 96.1354143,214.71814 214.71662,214.71814 118.58879,0 214.72421,-96.13542 214.72421,-214.71814 z"
         style="fill:#111114;fill-opacity:1;fill-rule:nonzero;stroke:none"
         id="path14"
         inkscape:connector-curvature="0" /><path
         d="m 46.334716,32.025723 -6.179136,0 -1.056922,7.073663 -7.517543,0 -1.062335,-7.073663 -5.618872,0 6.237327,38.981607 8.965567,0 6.231914,-38.981607 z m -13.97681,12.365039 5.905771,0 -2.955592,19.712067 -2.950179,-19.712067 z"
         style="fill:#ffffff;fill-opacity:1;fill-rule:nonzero;stroke:none"
         id="path16"
         inkscape:connector-curvature="0" /><path
         d="m 55.972869,71.00733 18.929863,0 0,-5.571508 -6.402429,0 0,-33.410099 -6.126358,0 0,33.410099 -6.401076,0 0,5.571508 z"
         style="fill:#ffffff;fill-opacity:1;fill-rule:nonzero;stroke:none"
         id="path18"
         inkscape:connector-curvature="0" /><path
         d="m 87.764429,61.650662 c 0,6.237327 3.287149,9.800548 9.298477,9.800548 6.015384,0 9.298474,-3.563221 9.298474,-9.800548 l 0,-20.26827 c 0,-6.237328 -3.28309,-9.800549 -9.298474,-9.800549 -6.011328,0 -9.298477,3.563221 -9.298477,9.800549 l 0,20.26827 z M 93.890787,40.99129 c 0,-2.779664 1.226084,-3.843352 3.172119,-3.843352 1.950095,0 3.172114,1.063688 3.172114,3.843352 l 0,21.050473 c 0,2.785077 -1.222019,3.837939 -3.172114,3.837939 -1.946035,0 -3.172119,-1.052862 -3.172119,-3.837939 l 0,-21.050473 z"
         style="fill:#ffffff;fill-opacity:1;fill-rule:nonzero;stroke:none"
         id="path20"
         inkscape:connector-curvature="0" /><path
         d="m 133.9821,43.33384 4.17626,27.67349 8.51627,0 0,-38.981607 -5.78803,0 0,27.953622 -4.22904,-27.953622 -5.79481,0 -4.56195,27.56252 0,-27.56252 -5.34957,0 0,38.981607 8.52169,0 4.50918,-27.67349 z"
         style="fill:#ffffff;fill-opacity:1;fill-rule:nonzero;stroke:none"
         id="path22"
         inkscape:connector-curvature="0" /><path
         d="m 161.82475,71.00733 6.12094,0 0,-38.981607 -6.12094,0 0,38.981607 z"
         style="fill:#ffffff;fill-opacity:1;fill-rule:nonzero;stroke:none"
         id="path24"
         inkscape:connector-curvature="0" /><path
         d="m 200.85372,46.562798 0,-5.180406 c 0,-6.237328 -3.11393,-9.800549 -9.12932,-9.800549 -6.00997,0 -9.13473,3.563221 -9.13473,9.800549 l 0,20.26827 c 0,6.237327 3.11935,9.800548 9.13473,9.800548 6.01539,0 9.12932,-3.563221 9.12932,-9.800548 l 0,-3.785161 -5.78804,0 0,4.176262 c 0,2.785077 -1.22608,3.837939 -3.17212,3.837939 -1.95009,0 -3.17211,-1.052862 -3.17211,-3.837939 l 0,-21.050473 c 0,-2.779664 1.22202,-3.785161 3.17211,-3.785161 1.94604,0 3.17212,1.005497 3.17212,3.785161 l 0,5.571508 5.78804,0 z"
         style="fill:#ffffff;fill-opacity:1;fill-rule:nonzero;stroke:none"
         id="path26"
         inkscape:connector-curvature="0" /><path
         d="m 64.440424,86.137146 c -0.06225,0.200287 -0.163749,0.374862 -0.295018,0.511545 -0.132623,0.154275 -0.312611,0.270658 -0.556203,0.370802 -0.194875,0.07984 -0.438467,0.142096 -0.733485,0.179988 -0.281485,0.04195 -0.619808,0.0636 -0.994671,0.0636 l -4.925986,0.05278 -0.07443,-6.877435 1.691616,-0.01624 0.02571,2.346611 2.728239,-0.03113 c 0.480419,0 0.872874,0.01083 1.200371,0.04195 0.338323,0.03654 0.633341,0.09473 0.871521,0.174575 0.265245,0.08932 0.481772,0.211113 0.640107,0.354563 0.163749,0.152922 0.285545,0.33291 0.369449,0.544023 0.06361,0.185401 0.105557,0.385689 0.121797,0.596803 0.01083,0.179988 0.01624,0.376215 0.01624,0.581916 0,0.196227 0,0.380275 0,0.545377 -0.0054,0.2057 -0.03248,0.391101 -0.08526,0.560263 z m -1.617185,-1.533281 c -0.0054,-0.09067 -0.02165,-0.148862 -0.04737,-0.190814 0,0 -0.03654,-0.02571 -0.158335,-0.05278 -0.121796,-0.02165 -0.280132,-0.03654 -0.487185,-0.04736 -0.227354,-0.0054 -0.502072,-0.01083 -0.802503,-0.0054 l -2.733652,0.03113 0.01624,1.391185 2.726886,-0.03248 c 0.32885,-0.0054 0.598155,-0.0095 0.820096,-0.01489 0.194874,-0.01083 0.359975,-0.02707 0.480419,-0.05278 0.127209,-0.02707 0.169161,-0.05278 0.169161,-0.04331 0.01083,-0.0095 0.02165,-0.04737 0.02707,-0.136683 0.0054,-0.11097 0.0054,-0.243593 0,-0.401928 0,-0.169162 0,-0.312611 -0.01083,-0.44388 z"
         style="fill:#46d200;fill-opacity:1;fill-rule:nonzero;stroke:none"
         id="path28"
         inkscape:connector-curvature="0" /><path
         d="m 82.054886,85.972044 c -0.07443,0.207054 -0.200287,0.381629 -0.364036,0.523725 -0.148862,0.143449 -0.359976,0.254419 -0.634694,0.343736 -0.232767,0.07984 -0.512898,0.138036 -0.862048,0.174575 -0.338323,0.03654 -0.740251,0.05819 -1.189544,0.06902 l -4.672921,0.04737 -0.07443,-6.877435 1.691616,-0.02165 0.02707,2.347964 2.854095,-0.03248 c 0.296371,0 0.571089,-0.01083 0.814682,-0.0203 0.184048,-0.01083 0.34915,-0.03248 0.475006,-0.06361 0.121796,-0.02707 0.159689,-0.05278 0.174575,-0.0636 0.0054,-0.02707 0.02165,-0.08526 0.02707,-0.185402 0.0054,-0.121796 0.0054,-0.269305 0.0054,-0.44388 l -0.02165,-1.586059 1.691617,-0.01624 0.02165,1.58606 c 0,0.243593 -0.01083,0.449293 -0.03248,0.640107 -0.02571,0.227354 -0.0839,0.427641 -0.179988,0.613042 -0.04195,0.07443 -0.08932,0.147509 -0.142096,0.211114 0.06902,0.07443 0.138036,0.159688 0.194875,0.243593 0.116383,0.179988 0.20164,0.396514 0.249006,0.64552 0.04195,0.216527 0.0636,0.46418 0.06902,0.734839 0,0.194874 0,0.385688 -0.01083,0.55485 -0.01083,0.211113 -0.04737,0.401928 -0.11097,0.575149 z m -3.086861,-1.855365 -2.971832,0.03248 0.01624,1.389832 2.971831,-0.03113 c 0.327497,0 0.596802,-0.01083 0.818742,-0.01624 0.196228,-0.01083 0.359976,-0.02707 0.48042,-0.05278 0.132622,-0.02707 0.174574,-0.04736 0.174574,-0.04195 0,-0.01083 0.01624,-0.04737 0.02165,-0.132623 0.0054,-0.116383 0.0054,-0.249006 0.0054,-0.407341 0,-0.169162 -0.0054,-0.316671 -0.01624,-0.438467 -0.0054,-0.09473 -0.0203,-0.152922 -0.04737,-0.194874 0,0 -0.03654,-0.02707 -0.158335,-0.04872 -0.121796,-0.02571 -0.285545,-0.04195 -0.481772,-0.05278 -0.232767,-0.01083 -0.502072,-0.01083 -0.813329,-0.0054 z"
         style="fill:#46d200;fill-opacity:1;fill-rule:nonzero;stroke:none"
         id="path30"
         inkscape:connector-curvature="0" /><path
         d="m 100.45696,85.242619 c -0.0636,0.280132 -0.15833,0.534551 -0.29095,0.756491 -0.15293,0.23818 -0.365392,0.433054 -0.629284,0.587329 -0.249006,0.136683 -0.544024,0.24224 -0.909413,0.311258 -0.338324,0.06902 -0.740252,0.100143 -1.226084,0.105557 l -2.23158,0.02165 c -0.491245,0.01083 -0.893173,-0.01624 -1.231497,-0.07443 -0.364036,-0.06361 -0.66582,-0.158335 -0.914826,-0.296371 -0.269305,-0.147509 -0.485832,-0.338323 -0.638754,-0.569736 -0.143449,-0.217881 -0.249006,-0.470946 -0.312611,-0.756491 -0.06361,-0.254419 -0.09473,-0.539964 -0.11097,-0.856635 -0.0054,-0.296371 -0.01489,-0.618455 -0.0203,-0.973017 0,-0.35321 0,-0.676647 0.0054,-0.971665 0,-0.318024 0.03113,-0.608982 0.0839,-0.862048 0.05819,-0.285544 0.163749,-0.539963 0.296371,-0.75649 0.147509,-0.236827 0.358623,-0.438467 0.629282,-0.591389 0.247652,-0.138036 0.55485,-0.243593 0.909412,-0.312611 0.338324,-0.06361 0.738898,-0.09473 1.226084,-0.100144 l 2.230227,-0.02571 c 0.487185,-0.0054 0.889113,0.0203 1.227437,0.07308 0.358622,0.0636 0.66582,0.163749 0.918886,0.296372 0.269305,0.147509 0.487185,0.343736 0.64011,0.576502 0.13668,0.216527 0.24359,0.465533 0.30584,0.749725 0.0582,0.254419 0.1015,0.545377 0.11097,0.862048 0.0108,0.290958 0.0217,0.613041 0.0271,0.967604 0.005,0.359976 0,0.68206 -0.005,0.973018 -0.0108,0.322083 -0.0365,0.607628 -0.0893,0.866107 z m -3.113922,-3.794633 -2.23564,0.02571 c -0.307198,0 -0.57109,0.01083 -0.787617,0.03248 -0.179988,0.01489 -0.318024,0.04736 -0.418168,0.08932 -0.0636,0.02707 -0.100143,0.05278 -0.127209,0.08526 -0.02571,0.04195 -0.0636,0.120443 -0.08932,0.263892 -0.02707,0.158335 -0.04195,0.354563 -0.04737,0.591389 0,0.265246 -0.0054,0.576503 0,0.947305 0,0.364036 0.0095,0.676647 0.0203,0.945952 0.0054,0.232767 0.02165,0.433054 0.05278,0.585976 0.02707,0.11097 0.05819,0.201641 0.09608,0.254419 0.02571,0.03654 0.07308,0.06361 0.131269,0.08932 0.100144,0.03789 0.243593,0.06361 0.423581,0.07984 0.211114,0.01624 0.480419,0.02571 0.79303,0.02165 l 2.230227,-0.02707 c 0.31261,0 0.576503,-0.01624 0.787616,-0.03654 0.179988,-0.01624 0.322084,-0.04737 0.418168,-0.09067 0.05819,-0.02571 0.100143,-0.05278 0.127209,-0.08932 0.03654,-0.05278 0.06767,-0.143449 0.09473,-0.259833 0.02571,-0.152922 0.04195,-0.347796 0.04736,-0.585975 0,-0.269306 0,-0.581916 0,-0.945952 -0.01083,-0.370803 -0.01083,-0.68206 -0.02165,-0.941892 -0.0095,-0.24224 -0.03113,-0.44388 -0.0636,-0.591389 -0.03113,-0.143449 -0.06767,-0.22194 -0.08932,-0.254419 -0.03113,-0.03654 -0.07443,-0.06766 -0.142095,-0.09473 -0.09608,-0.03654 -0.23818,-0.06361 -0.412755,-0.07984 -0.22194,-0.01489 -0.485832,-0.01489 -0.787616,-0.01489 z"
         style="fill:#46d200;fill-opacity:1;fill-rule:nonzero;stroke:none"
         id="path32"
         inkscape:connector-curvature="0" /><path
         d="m 115.01028,82.028548 c 0,-0.152922 -0.0162,-0.280131 -0.0487,-0.380275 -0.01,-0.05819 -0.0365,-0.105557 -0.0623,-0.131269 -0.0379,-0.03789 -0.0961,-0.0636 -0.16916,-0.08526 -0.0853,-0.02165 -0.23818,-0.04736 -0.48719,-0.04195 l -1.72815,0.01489 c -0.15293,0.0054 -0.28014,0.01624 -0.37081,0.03248 -0.0203,0.01083 -0.0257,0.01624 -0.0365,0.02165 0,0.0041 -0.0365,0.05278 -0.0582,0.200287 -0.0257,0.147509 -0.0419,0.359976 -0.0365,0.640108 l 0.005,0.718599 -1.69161,0.01624 -0.0108,-0.719952 c 0,-0.401928 0.0162,-0.729425 0.0582,-1.01497 0.0528,-0.33291 0.16375,-0.607628 0.33832,-0.834981 0.1854,-0.227354 0.43847,-0.401928 0.75514,-0.496659 0.27066,-0.07984 0.60898,-0.12721 1.02579,-0.132623 l 1.72951,-0.01489 c 0.4114,-0.0054 0.76055,0.03113 1.05151,0.100144 0.33291,0.07849 0.60763,0.216527 0.81874,0.401928 0.21788,0.194874 0.38163,0.449293 0.47095,0.744311 0.0853,0.265245 0.13262,0.576503 0.13262,0.931066 l 0.0528,4.67292 -1.69161,0.02165 -0.0474,-4.663448 z"
         style="fill:#46d200;fill-opacity:1;fill-rule:nonzero;stroke:none"
         id="path34"
         inkscape:connector-curvature="0" /><path
         d="m 133.84,84.915122 0.0149,1.56982 -6.87744,0.07443 -0.0731,-6.877435 6.87744,-0.07443 0.0149,1.571173 -5.18581,0.05278 0.0108,1.146239 4.93817,-0.05278 0.0149,1.56982 -4.93681,0.05819 0.0108,1.020383 5.19123,-0.05819 z"
         style="fill:#46d200;fill-opacity:1;fill-rule:nonzero;stroke:none"
         id="path36"
         inkscape:connector-curvature="0" /><path
         d="m 151.21493,85.306224 c -0.10556,0.207054 -0.24765,0.385689 -0.42223,0.529138 -0.17457,0.147509 -0.38569,0.269305 -0.64011,0.359976 -0.22735,0.0839 -0.50748,0.147509 -0.81333,0.189461 -0.29637,0.04195 -0.64552,0.0636 -1.0312,0.06902 l -1.73357,0.02165 c -0.48719,0 -0.88776,-0.02165 -1.22609,-0.07984 -0.36539,-0.06361 -0.66717,-0.158335 -0.91482,-0.296371 -0.26931,-0.147509 -0.48719,-0.338323 -0.64011,-0.57109 -0.1421,-0.216527 -0.24765,-0.469593 -0.31667,-0.755137 -0.0582,-0.259833 -0.0907,-0.549437 -0.10014,-0.862048 -0.0108,-0.290958 -0.0217,-0.613042 -0.0271,-0.973018 -0.005,-0.353209 0,-0.671233 0,-0.962191 0.0108,-0.316671 0.0365,-0.607629 0.0893,-0.866108 0.0582,-0.285545 0.15969,-0.539964 0.29637,-0.75649 0.14886,-0.23818 0.35997,-0.438467 0.63469,-0.596803 0.2436,-0.132622 0.54944,-0.238179 0.904,-0.307197 0.33291,-0.06361 0.75108,-0.09473 1.22609,-0.100144 l 1.73356,-0.02165 c 0.40193,0 0.73484,0.01083 1.03121,0.04331 0.32209,0.03654 0.58733,0.09473 0.82416,0.178634 0.25442,0.09067 0.47636,0.212467 0.65093,0.359976 0.17458,0.147509 0.32209,0.33291 0.43306,0.544024 0.10555,0.196228 0.17998,0.423581 0.21652,0.676647 0.0379,0.21788 0.0528,0.470946 0.0582,0.734838 l 0.005,0.476359 -1.69162,0.02165 0,-0.476359 c -0.005,-0.190815 -0.0149,-0.34915 -0.0311,-0.481773 -0.0162,-0.131269 -0.042,-0.211114 -0.0636,-0.253066 -0.0216,-0.04195 -0.0474,-0.06902 -0.0798,-0.09473 -0.0257,-0.02165 -0.0839,-0.05278 -0.18946,-0.08526 -0.11097,-0.02571 -0.25984,-0.05278 -0.43847,-0.0636 -0.1854,-0.01083 -0.41817,-0.01489 -0.70371,-0.01083 l -1.73898,0.01624 c -0.30179,0.0054 -0.57109,0.01624 -0.78762,0.03789 -0.17999,0.01489 -0.31802,0.04736 -0.41817,0.08932 -0.0893,0.03654 -0.12179,0.07443 -0.12179,0.08932 -0.0311,0.03789 -0.0677,0.116383 -0.0947,0.259832 -0.0311,0.152922 -0.0474,0.353209 -0.0474,0.591389 -0.005,0.259832 -0.005,0.576503 0,0.941892 0.005,0.369449 0.0108,0.68612 0.0162,0.945952 0.009,0.238179 0.0257,0.438467 0.0582,0.591389 0.0257,0.11097 0.0582,0.201641 0.0947,0.254419 0.0311,0.03654 0.0744,0.06361 0.13668,0.08932 0.0961,0.03789 0.23818,0.06361 0.41817,0.07984 0.21653,0.01624 0.48177,0.0203 0.79303,0.0203 l 1.73357,-0.0203 c 0.35456,-0.0054 0.65093,-0.02165 0.87829,-0.04737 0.22735,-0.02165 0.34779,-0.07984 0.4114,-0.116383 0.0433,-0.02707 0.0907,-0.06361 0.12721,-0.169161 0.0325,-0.08526 0.069,-0.25442 0.069,-0.565677 l -0.0108,-0.476359 1.69703,-0.0203 0,0.475006 c 0.005,0.249006 -0.0108,0.481773 -0.0419,0.6983 -0.0379,0.242239 -0.11097,0.454706 -0.20706,0.644167 l -0.005,0 z"
         style="fill:#46d200;fill-opacity:1;fill-rule:nonzero;stroke:none"
         id="path38"
         inkscape:connector-curvature="0" /><path
         d="m 161.25907,84.618751 2.96642,-0.03113 -0.0582,-5.307615 1.69161,-0.0203 0.0582,5.306262 2.95966,-0.03113 0.0162,1.575233 -7.61769,0.07984 -0.0162,-1.571173 z"
         style="fill:#46d200;fill-opacity:1;fill-rule:nonzero;stroke:none"
         id="path40"
         inkscape:connector-curvature="0" /><path
         d="m 112.87343,156.5977 c -5.5079,0 -13.891555,0.49124 -13.891555,0.49124 -0.878287,0.0528 -1.178718,0.67665 -0.656347,1.39119 0,0 5.202062,7.16298 8.976392,11.6505 1.86619,2.20992 4.4997,5.13304 4.4997,5.13304 0.59139,0.65499 1.55358,0.64958 2.14497,0 0,0 2.63351,-2.92312 4.50511,-5.13304 3.77434,-4.48752 8.98046,-11.6505 8.98046,-11.6505 0.51831,-0.71454 0.22194,-1.33841 -0.66041,-1.39119 0,0 -8.38907,-0.49124 -13.89832,-0.49124 z"
         style="fill:#46d200;fill-opacity:1;fill-rule:nonzero;stroke:none"
         id="path42"
         inkscape:connector-curvature="0" /><path
         d="m 194.36197,163.08944 c -0.0311,7.97631 -19.3575,14.83345 -47.20692,17.95144 -1.66455,0.0744 -2.53201,-1.15166 -2.55772,-2.33579 -0.0474,-0.94054 0.60221,-2.09896 1.78634,-2.28842 0.22194,-0.0379 0.41276,-0.0853 0.66041,-0.12179 22.43625,-2.34797 37.71357,-6.94646 37.73928,-12.25948 0.0271,-5.18041 -14.44775,-9.71665 -35.94617,-12.1634 -5.62022,9.17668 -12.47059,19.03 -20.29939,28.974 -3.69585,4.69457 -7.4174,9.16044 -11.11189,13.38542 19.0679,21.2034 35.86768,34.09081 40.726,30.28941 3.75809,-2.94341 -0.52373,-15.37747 -10.11857,-31.69548 -0.30179,-0.52372 -0.54944,-2.07324 0.6401,-2.87575 1.12053,-0.7619 2.63216,-0.33832 3.29257,0.72402 0.0961,0.16374 0.2693,0.4114 0.36539,0.57514 11.82507,20.6702 16.60896,36.94626 10.9319,41.39183 -6.93563,5.42399 -27.32028,-8.41478 -49.48046,-32.35183 l 0,0.005 c -0.30043,-0.3275 -0.60221,-0.64959 -0.90941,-0.98385 -0.30043,0.33426 -0.60763,0.65635 -0.90806,0.98385 l 0,-0.005 c -22.160175,23.93705 -42.539415,37.77582 -49.475041,32.35183 -5.677065,-4.44557 -0.893174,-20.72163 10.931901,-41.39183 0.09473,-0.16374 0.269305,-0.4114 0.365389,-0.57514 0.654994,-1.06234 2.166622,-1.48592 3.292562,-0.72402 1.184131,0.80251 0.941892,2.35203 0.640107,2.87575 -9.60026,16.31801 -13.88208,28.75207 -10.123985,31.69548 4.863735,3.8014 21.663515,-9.08195 40.731417,-30.28941 -3.69449,-4.22498 -7.42146,-8.69085 -11.111892,-13.38542 -7.8288,-9.944 -14.680523,-19.79732 -20.304809,-28.974 -21.498413,2.44675 -35.967822,6.98299 -35.940756,12.1634 0.0203,5.31302 15.297624,9.91693 37.737929,12.25948 0.249006,0.0365 0.439821,0.0839 0.661761,0.12179 1.184131,0.18946 1.833712,1.34788 1.786347,2.28842 -0.02707,1.18413 -0.893174,2.41022 -2.564491,2.33579 -27.848064,-3.11799 -47.169029,-9.97513 -47.200155,-17.95144 -0.03789,-7.47559 16.857972,-14.00929 41.841115,-17.43988 -11.704632,-20.52675 -16.399205,-36.66071 -10.747854,-41.08462 6.122298,-4.789307 22.720437,5.43347 41.766685,24.35385 0.63469,0.58192 1.03121,2.11385 -0.12586,3.23979 -0.74025,0.72536 -2.06783,0.87287 -2.98266,0.20164 -0.35862,-0.26389 -0.70236,-0.60222 -0.95136,-0.8404 -14.853745,-14.90246 -27.013083,-23.16431 -31.024244,-20.02467 -3.901543,3.04491 0.849868,16.10148 11.20662,33.2883 9.689578,-1.04204 20.368414,-1.63478 31.591274,-1.68214 0.15292,0 0.31126,0 0.46418,0 0.12179,0 0.24359,-0.005 0.36539,-0.005 l 0.15833,0 c 0.1218,0 0.2436,0.005 0.36539,0.005 0.15292,0 0.31126,0 0.46418,0 11.22286,0.0474 21.89628,0.6401 31.59128,1.68214 10.35539,-17.18682 15.10816,-30.24339 11.20662,-33.2883 -4.01252,-3.13964 -16.1705,5.12221 -31.02425,20.02467 -0.249,0.23818 -0.59274,0.57651 -0.95272,0.8404 -0.91347,0.67123 -2.24105,0.52372 -2.9813,-0.20164 -1.15165,-1.12594 -0.76055,-2.65787 -0.12586,-3.23979 19.04625,-18.92038 35.64439,-29.143157 41.76669,-24.35385 5.65135,4.42391 0.95678,20.55787 -10.74786,41.08462 24.98315,3.43059 41.87901,9.96429 41.84653,17.43988 z m -81.2233,-13.12559 c -0.0907,0 -0.17457,-0.005 -0.26524,-0.005 -0.0839,0 -0.16916,0.005 -0.25848,0.005 -10.04414,0.009 -19.601097,0.43306 -28.275705,1.1679 5.158753,7.99796 11.337889,16.66715 18.289755,25.49604 3.12475,3.96921 6.24274,7.75437 9.33637,11.37037 l 0,-0.005 c 0.30043,0.35456 0.60763,0.7186 0.90806,1.06775 0.3072,-0.34915 0.61439,-0.71319 0.91482,-1.06775 l 0,0.005 c 3.09228,-3.616 6.21162,-7.40116 9.33638,-11.37037 6.95592,-8.82889 13.131,-17.49808 18.28975,-25.49604 -8.67461,-0.73484 -18.23156,-1.15842 -28.27571,-1.1679 z"
         style="fill:#6b6b6b;fill-opacity:1;fill-rule:nonzero;stroke:none"
         id="path44"
         inkscape:connector-curvature="0" /><path
         d="m 66.175346,-0.14069926 c 0.718598,-0.529137 1.606358,-0.88911304 2.241053,-0.88911304 1.628011,0 3.319628,1.54410704 3.319628,3.890717 0,2.13685 -1.184132,3.721556 -3.023257,3.721556 -0.845808,0 -1.860778,-0.569736 -2.45352,-1.035269 l 0.318024,0 -0.06361,0.845808 -1.058275,0 0,-10.382464 1.163832,0 0,3.51044204 -0.44388,0.338323 z m 0.44388,0.740252 0,4.03822596 c 0.740251,0.654994 1.311341,1.01497 1.987987,1.01497 1.584706,0 1.92303,-1.100227 1.92303,-2.791844 0,-1.860778 -0.738898,-2.98130396 -2.135497,-2.98130396 -0.527784,0 -1.078574,0.190814 -1.77552,0.761904 l 0,-0.04195 z"
         style="fill:#d3d7cf;fill-opacity:1;fill-rule:nonzero;stroke:none"
         id="path46"
         inkscape:connector-curvature="0" /><path
         d="m 74.717331,-0.86065126 0.88776,0 0,4.88538796 c 0.529138,1.289689 0.994671,1.58606 1.629365,1.58606 0.253066,0 0.400575,-0.02165 0.802503,-0.212467 l 0.232766,0.909413 c -0.31667,0.169161 -0.696945,0.274718 -0.951365,0.274718 -0.824155,0 -1.691616,-0.676646 -2.113843,-1.45885 l 0.358622,0 -0.0636,1.269389 -1.056922,0 0,-7.25365096 0.274718,0 z"
         style="fill:#d3d7cf;fill-opacity:1;fill-rule:nonzero;stroke:none"
         id="path48"
         inkscape:connector-curvature="0" /><path
         d="m 79.411905,2.7553477 c 0,-2.28300496 1.713269,-3.78516 3.383232,-3.78516 1.649665,0 3.36158,1.50215504 3.36158,3.78516 0,2.304658 -1.711915,3.827113 -3.36158,3.827113 -1.669963,0 -3.383232,-1.522455 -3.383232,-3.827113 z m 1.205784,0 c 0,1.818826 0.782203,2.897401 2.177448,2.897401 1.395246,0 2.15715,-1.078575 2.15715,-2.897401 0,-1.81747196 -0.761904,-2.87574696 -2.15715,-2.87574696 -1.395245,0 -2.177448,1.058275 -2.177448,2.87574696 z"
         style="fill:#d3d7cf;fill-opacity:1;fill-rule:nonzero;stroke:none"
         id="path50"
         inkscape:connector-curvature="0" /><path
         d="m 88.852477,-1.9175723 c 0,-0.887761 0.12721,-1.331641 -0.654994,-1.331641 -0.274718,0 -0.549437,0.0839 -0.929712,0.211114 l -0.254419,-0.824156 c 0.529137,-0.212467 0.867461,-0.296371 1.205784,-0.296371 1.056922,0 1.797173,0.845808 1.797173,2.199101 l 0,8.352525 -1.163832,0 0,-8.310572 z m 0.592742,9.621913 c 0.316671,0 0.845809,0.400575 0.845809,0.738898 0,0.359976 -0.529138,0.761904 -0.845809,0.761904 -0.296371,0 -0.845808,-0.401928 -0.845808,-0.761904 0,-0.338323 0.549437,-0.738898 0.845808,-0.738898 z"
         style="fill:#d3d7cf;fill-opacity:1;fill-rule:nonzero;stroke:none"
         id="path52"
         inkscape:connector-curvature="0" /><path
         d="m 92.701242,2.7553477 c 0,-2.26270596 1.713269,-3.78516 3.468491,-3.78516 1.014969,0 1.797173,0.38162804 2.452167,0.78355604 l -0.465533,0.866108 c -0.782204,-0.549437 -1.184132,-0.740251 -1.92303,-0.740251 -1.544107,0 -2.306011,1.058275 -2.347963,2.62268196 l 4.947639,0 c 0.0636,0.338323 0.0636,0.527784 0.0636,0.696946 0,2.029939 -1.268036,3.383232 -2.9177,3.383232 -1.522454,0 -3.277676,-1.584706 -3.277676,-3.827113 z m 1.184132,0.401928 c 0.148862,1.671317 0.931066,2.517126 2.115197,2.517126 1.247736,0 1.755221,-0.740252 1.755221,-2.326311 l -3.848765,0 -0.02165,-0.190815 z"
         style="fill:#d3d7cf;fill-opacity:1;fill-rule:nonzero;stroke:none"
         id="path54"
         inkscape:connector-curvature="0" /><path
         d="m 100.78987,2.7553477 c 0,-2.28300496 1.62802,-3.78516 3.42519,-3.78516 0.86746,0 1.77687,0.42358104 2.47382,1.05827504 l -0.59139,0.782203 c -0.67665,-0.613041 -1.12053,-0.931065 -1.86078,-0.931065 -1.50215,0 -2.2424,1.058275 -2.2424,2.87574696 0,1.818826 0.8255,2.897401 2.2424,2.897401 0.67665,0 1.01497,-0.274719 1.64831,-0.867461 l 0.65635,0.761904 c -0.57109,0.549437 -1.37495,1.035269 -2.32631,1.035269 -1.66996,0 -3.42519,-1.522455 -3.42519,-3.827113 z"
         style="fill:#d3d7cf;fill-opacity:1;fill-rule:nonzero;stroke:none"
         id="path56"
         inkscape:connector-curvature="0" /><path
         d="m 109.1424,1.2328937 c 0,-1.24773596 0.65499,-2.262706 2.00829,-2.262706 0.27471,0 0.71859,0.10691004 1.39524,0.35997604 l -0.27472,0.845808 c -0.42222,-0.190814 -0.7822,-0.296371 -1.03527,-0.296371 -0.95271,0 -0.90941,0.401928 -0.90941,1.28968796 l 0,4.335951 1.98663,0 0,0.88776 -1.98663,0 0,2.008287 -1.05827,0 -0.10556,-2.008287 -1.09888,-0.06361 0,-0.824155 1.07858,0 0,-4.272346 z"
         style="fill:#d3d7cf;fill-opacity:1;fill-rule:nonzero;stroke:none"
         id="path58"
         inkscape:connector-curvature="0" /><path
         d="m 113.9317,1.0434327 c 0,-1.31134096 1.20443,-2.073245 2.28301,-2.073245 0.90941,0 1.92438,0.55079004 2.55908,1.05827504 l -0.33833,0 0.0839,-0.889114 1.03663,0 0,4.58901696 c 0,1.480503 -0.80386,2.854095 -2.43187,2.854095 -1.12053,0 -2.26271,-0.613042 -2.87575,-1.035269 l 0.52914,-0.845808 c 0.69694,0.527784 1.33164,0.951365 2.2627,0.951365 1.3533,0 1.3736,-0.867461 1.3533,-1.860778 -2.79185,-0.316671 -4.46181,-1.226084 -4.46181,-2.748538 z m 1.20443,0.0203 c 0,1.100227 0.6983,1.58606 3.25738,1.882431 l 0,-2.07189196 c -0.7619,-0.676646 -1.26939,-0.99467 -2.07324,-0.99467 -0.78221,0 -1.18414,0.190814 -1.18414,1.18413096 z"
         style="fill:#d3d7cf;fill-opacity:1;fill-rule:nonzero;stroke:none"
         id="path60"
         inkscape:connector-curvature="0" /><path
         d="m 122.79578,1.2328937 c 0,-1.24773596 0.65634,-2.262706 2.00964,-2.262706 0.27471,0 0.71859,0.10691004 1.39524,0.35997604 l -0.27472,0.845808 c -0.42358,-0.190814 -0.7822,-0.296371 -1.03662,-0.296371 -0.95137,0 -0.90806,0.401928 -0.90806,1.28968796 l 0,4.335951 1.98663,0 0,0.88776 -1.98663,0 0,2.008287 -1.05828,0 -0.10555,-2.008287 -1.09888,-0.06361 0,-0.824155 1.07723,0 0,-4.272346 z"
         style="fill:#d3d7cf;fill-opacity:1;fill-rule:nonzero;stroke:none"
         id="path62"
         inkscape:connector-curvature="0" /><path
         d="m 127.55937,2.7553477 c 0,-2.28300496 1.71327,-3.78516 3.38323,-3.78516 1.64966,0 3.36158,1.50215504 3.36158,3.78516 0,2.304658 -1.71192,3.827113 -3.36158,3.827113 -1.66996,0 -3.38323,-1.522455 -3.38323,-3.827113 z m 1.20578,0 c 0,1.818826 0.7822,2.897401 2.17745,2.897401 1.39524,0 2.15715,-1.078575 2.15715,-2.897401 0,-1.81747196 -0.76191,-2.87574696 -2.15715,-2.87574696 -1.39525,0 -2.17745,1.058275 -2.17745,2.87574696 z"
         style="fill:#d3d7cf;fill-opacity:1;fill-rule:nonzero;stroke:none"
         id="path64"
         inkscape:connector-curvature="0" /><path
         d="m 137.27601,-0.86065126 0.88776,0 0,5.32926796 c 0.67665,0.782204 1.18413,1.162479 1.79717,1.162479 1.07858,0 1.28969,-0.507485 1.28969,-1.966335 l 0,-4.52541196 1.16383,0 0,5.32926796 c 0.67665,0.782204 1.16248,1.162479 1.81748,1.162479 1.03662,0 1.26939,-0.507485 1.26939,-1.966335 l 0,-4.52541196 1.16247,0 0,4.61066996 c 0,1.77552 -0.95136,2.832442 -2.32631,2.832442 -0.7822,0 -1.73356,-0.613042 -2.2194,-1.140826 -0.10555,0.380275 -0.93106,1.140826 -2.02994,1.140826 -0.7619,0 -1.73356,-0.591389 -2.32631,-1.246383 l 0.35998,0 -0.0636,1.056922 -1.05692,0 0,-7.25365096 0.27472,0 z"
         style="fill:#d3d7cf;fill-opacity:1;fill-rule:nonzero;stroke:none"
         id="path66"
         inkscape:connector-curvature="0" /><path
         d="m 150.43273,7.7043407 c 0.31802,0 0.8458,0.400575 0.8458,0.738898 0,0.359976 -0.52778,0.761904 -0.8458,0.761904 -0.31667,0 -0.84581,-0.401928 -0.84581,-0.761904 0,-0.338323 0.52914,-0.738898 0.84581,-0.738898 z m -0.31667,-8.56499196 0.88776,0 0,7.25365096 -1.16248,0 0,-7.25365096 0.27472,0 z"
         style="fill:#d3d7cf;fill-opacity:1;fill-rule:nonzero;stroke:none"
         id="path68"
         inkscape:connector-curvature="0" /><path
         d="m 153.68469,2.7553477 c 0,-2.28300496 1.62801,-3.78516 3.42518,-3.78516 0.86746,0 1.77552,0.42358104 2.47382,1.05827504 l -0.59139,0.782203 c -0.67664,-0.613041 -1.12188,-0.931065 -1.86077,-0.931065 -1.50216,0 -2.24241,1.058275 -2.24241,2.87574696 0,1.818826 0.82551,2.897401 2.24241,2.897401 0.67664,0 1.01497,-0.274719 1.64831,-0.867461 l 0.65634,0.761904 c -0.57109,0.549437 -1.37494,1.035269 -2.32631,1.035269 -1.66996,0 -3.42518,-1.522455 -3.42518,-3.827113 z"
         style="fill:#d3d7cf;fill-opacity:1;fill-rule:nonzero;stroke:none"
         id="path70"
         inkscape:connector-curvature="0" /><path
         d="m 161.52973,-0.20430326 c 0,-0.401928 0.56974,-0.82550904 0.88776,-0.82550904 0.31667,0 0.86611,0.42358104 0.86611,0.82550904 0,0.401928 -0.54944,0.845808 -0.86611,0.845808 -0.31802,0 -0.88776,-0.44388 -0.88776,-0.845808 z"
         style="fill:#d3d7cf;fill-opacity:1;fill-rule:nonzero;stroke:none"
         id="path72"
         inkscape:connector-curvature="0" /><path
         d="m 166.7778,7.7043407 c 0.31802,0 0.84716,0.400575 0.84716,0.738898 0,0.359976 -0.52914,0.761904 -0.84716,0.761904 -0.31667,0 -0.84446,-0.401928 -0.84446,-0.761904 0,-0.338323 0.52779,-0.738898 0.84446,-0.738898 z m -0.31667,-8.56499196 0.88776,0 0,7.25365096 -1.16248,0 0,-7.25365096 0.27472,0 z"
         style="fill:#d3d7cf;fill-opacity:1;fill-rule:nonzero;stroke:none"
         id="path74"
         inkscape:connector-curvature="0" /><path
         d="m 170.03518,2.7553477 c 0,-2.28300496 1.71191,-3.78516 3.38323,-3.78516 1.64966,0 3.36158,1.50215504 3.36158,3.78516 0,2.304658 -1.71192,3.827113 -3.36158,3.827113 -1.67132,0 -3.38323,-1.522455 -3.38323,-3.827113 z m 1.20443,0 c 0,1.818826 0.78355,2.897401 2.1788,2.897401 1.39524,0 2.15579,-1.078575 2.15579,-2.897401 0,-1.81747196 -0.76055,-2.87574696 -2.15579,-2.87574696 -1.39525,0 -2.1788,1.058275 -2.1788,2.87574696 z"
         style="fill:#d3d7cf;fill-opacity:1;fill-rule:nonzero;stroke:none"
         id="path76"
         inkscape:connector-curvature="0" /><g
         id="g78"
         transform="matrix(1.353293,0,0,-1.353293,-78.928792,308.07662)"><path
           d="m 100.492,225.238 0,1.957 c 0,0.563 -0.453,1.016 -1.019,1.016 l -3.817,0 c -0.562,0 -1.015,-0.453 -1.015,-1.016 l 0,-3.816 c 0,-0.563 0.453,-1.016 1.015,-1.016 l 1.961,0"
           style="fill:none;stroke:#ffffff;stroke-width:0.303655;stroke-linecap:round;stroke-linejoin:miter;stroke-miterlimit:4;stroke-opacity:1;stroke-dasharray:none"
           id="path80"
           inkscape:connector-curvature="0" /></g><g
         id="g82"
         transform="matrix(1.353293,0,0,-1.353293,-78.928792,308.07662)"><path
           d="m 98.496,224.359 2.922,-2.925"
           style="fill:none;stroke:#ffffff;stroke-width:0.303655;stroke-linecap:round;stroke-linejoin:round;stroke-miterlimit:4;stroke-opacity:1;stroke-dasharray:none"
           id="path84"
           inkscape:connector-curvature="0" /></g><g
         id="g86"
         transform="matrix(1.353293,0,0,-1.353293,-78.928792,308.07662)"><path
           d="m 99.297,221.434 2.121,0 0,2.023"
           style="fill:none;stroke:#ffffff;stroke-width:0.303655;stroke-linecap:round;stroke-linejoin:round;stroke-miterlimit:4;stroke-opacity:1;stroke-dasharray:none"
           id="path88"
           inkscape:connector-curvature="0" /></g></g></g></svg>